# xmcd
#
# Track frame offsets:
#	150
#	19022
#	36010
#	45817
#	63640
#	85352
#	99702
#	113052
#	131430
#	152097
#
# Disc length: 2277 seconds
# Revision: 0
# Processed by: cddbd v1.5.2PL0 Copyright (c) Steve Scherf et al.
# Submitted via: dBpowerAMP V12.0
#
DISCID=7608e30a
DTITLE=Won By One - Road Of Life
DYEAR=1996
DGENRE=Country
TTITLE0=Hand in Hand
TTITLE1=Nothing Can Erase God's Grace
TTITLE2=Walk Right Out of This Valley
TTITLE3=1 More Glory Story
TTITLE4=He Did Not Come Down
TTITLE5=Look Up Children
TTITLE6=Til Heaven Comes into View
TTITLE7=When I Get Home
TTITLE8=When Jesus Came Knocking
TTITLE9=The Road Of Life
EXTD=
EXTT0=
EXTT1=
EXTT2=
EXTT3=
EXTT4=
EXTT5=
EXTT6=
EXTT7=
EXTT8=
EXTT9=
PLAYORDER=
